<?xml version="1.0" standalone="no"?>
<!DOCTYPE svg PUBLIC "-//W3C//DTD SVG 20010904//EN"
 "http://www.w3.org/TR/2001/REC-SVG-20010904/DTD/svg10.dtd">
<svg version="1.0" xmlns="http://www.w3.org/2000/svg"
 width="500.000000pt" height="500.000000pt" viewBox="0 0 500.000000 500.000000"
 preserveAspectRatio="xMidYMid meet">

<g transform="translate(0.000000,500.000000) scale(0.100000,-0.100000)"
fill="#000000" stroke="none">
<path d="M2375 3914 c-154 -102 -297 -195 -317 -206 -21 -12 -38 -25 -38 -29
0 -4 37 -33 83 -63 45 -31 118 -81 162 -111 44 -30 85 -55 92 -55 6 0 41 20
77 45 95 65 224 145 234 145 5 0 31 -14 58 -32 160 -102 192 -123 216 -139 15
-11 30 -19 34 -19 3 0 20 -10 37 -22 17 -13 39 -27 49 -33 10 -5 56 -35 104
-65 47 -30 93 -59 103 -65 24 -14 133 -83 316 -200 28 -18 181 -114 340 -215
160 -100 314 -198 343 -216 l52 -34 0 -665 0 -665 -710 0 -710 0 -2 677 -3
677 -65 45 c-36 25 -99 68 -140 96 -205 140 -329 225 -370 254 -25 17 -99 68
-165 113 -66 45 -172 118 -235 161 -63 43 -153 104 -199 135 -46 32 -89 61
-96 66 -8 6 -81 -37 -235 -140 -123 -82 -309 -206 -414 -276 -105 -70 -204
-136 -221 -148 -16 -11 -62 -42 -101 -68 -39 -26 -139 -92 -222 -147 l-151
-100 0 -862 -1 -863 185 0 185 0 0 458 c0 252 3 594 7 758 l6 300 111 74 c61
41 116 79 121 83 6 4 127 85 270 180 143 95 296 198 340 228 44 31 85 59 92
62 10 6 100 -51 313 -198 105 -73 221 -152 315 -215 44 -30 82 -57 85 -60 3
-3 51 -36 108 -74 l102 -68 0 -764 0 -764 1095 0 1095 0 -2 962 -3 961 -27 16
c-15 9 -85 52 -155 97 -71 44 -206 130 -300 189 l-173 109 0 328 0 328 -235 0
-235 0 0 -175 c0 -96 -3 -175 -7 -175 -6 0 -208 126 -385 239 -47 31 -108 70
-135 86 -26 17 -64 40 -83 52 -19 12 -48 30 -64 39 -16 9 -51 32 -78 50 -26
19 -51 34 -54 34 -3 0 -20 10 -37 23 -27 18 -75 47 -81 47 -1 0 -127 -84 -281
-186z"/>
<path d="M3270 2158 l0 -148 150 0 151 0 -3 146 -3 145 -148 2 -147 2 0 -147z"/>
<path d="M3660 2155 l0 -145 150 0 150 0 0 145 0 145 -150 0 -150 0 0 -145z"/>
<path d="M1270 1430 l0 -540 335 0 335 0 0 540 0 540 -335 0 -335 0 0 -540z"/>
<path d="M3270 1770 l0 -150 150 0 150 0 0 150 0 150 -150 0 -150 0 0 -150z"/>
<path d="M3660 1770 l0 -150 150 0 150 0 0 150 0 150 -150 0 -150 0 0 -150z"/>
</g>
</svg>
