<svg xmlns="http://www.w3.org/2000/svg" xmlns:xlink="http://www.w3.org/1999/xlink" width="1080" zoomAndPan="magnify" viewBox="0 0 810 809.999993" height="1080" preserveAspectRatio="xMidYMid meet" version="1.0"><defs><clipPath id="e0856a99ab"><path d="M 6.542969 87.542969 L 803.5 87.542969 L 803.5 665.960938 L 6.542969 665.960938 Z M 6.542969 87.542969 " clip-rule="nonzero"/></clipPath><clipPath id="40ead50210"><path d="M 685.757812 245.742188 L 685.757812 127.390625 L 601.941406 127.390625 L 601.941406 192.722656 L 435.679688 87.554688 L 320.652344 163.242188 L 380.675781 204.464844 L 436.398438 167.800781 L 736.011719 357.320312 L 736.011719 598.382812 L 478.515625 598.382812 L 478.503906 354.621094 L 246.90625 195.578125 L 7.105469 356.457031 L 6.59375 638.53125 L 6.554688 638.53125 L 6.554688 665.953125 L 73.996094 665.953125 L 73.996094 652.214844 L 74.46875 392.453125 L 246.472656 277.058594 L 411.164062 390.144531 L 411.21875 665.941406 L 803.441406 665.941406 L 803.453125 320.1875 Z M 685.757812 245.742188 " clip-rule="nonzero"/></clipPath><clipPath id="f3d5e81b53"><path d="M 0.542969 0.542969 L 797.5 0.542969 L 797.5 578.960938 L 0.542969 578.960938 Z M 0.542969 0.542969 " clip-rule="nonzero"/></clipPath><clipPath id="bcfa912053"><path d="M 679.757812 158.742188 L 679.757812 40.390625 L 595.941406 40.390625 L 595.941406 105.722656 L 429.679688 0.554688 L 314.652344 76.242188 L 374.675781 117.464844 L 430.398438 80.800781 L 730.011719 270.320312 L 730.011719 511.382812 L 472.515625 511.382812 L 472.503906 267.621094 L 240.90625 108.578125 L 1.105469 269.457031 L 0.59375 551.53125 L 0.554688 551.53125 L 0.554688 578.953125 L 67.996094 578.953125 L 67.996094 565.214844 L 68.46875 305.453125 L 240.472656 190.058594 L 405.164062 303.144531 L 405.21875 578.941406 L 797.441406 578.941406 L 797.453125 233.1875 Z M 679.757812 158.742188 " clip-rule="nonzero"/></clipPath><clipPath id="9786c0d7da"><rect x="0" width="798" y="0" height="579"/></clipPath><clipPath id="7bf079515e"><path d="M 186.125 471.953125 L 305.578125 471.953125 L 305.578125 665.953125 L 186.125 665.953125 Z M 186.125 471.953125 " clip-rule="nonzero"/></clipPath><clipPath id="e241889bd5"><path d="M 0.125 0.953125 L 119.578125 0.953125 L 119.578125 194.953125 L 0.125 194.953125 Z M 0.125 0.953125 " clip-rule="nonzero"/></clipPath><clipPath id="06aecbd89d"><rect x="0" width="120" y="0" height="195"/></clipPath><clipPath id="d64398f2e1"><path d="M 544.390625 411 L 598 411 L 598 464 L 544.390625 464 Z M 544.390625 411 " clip-rule="nonzero"/></clipPath><clipPath id="614cb65f6f"><path d="M 597.746094 463.773438 L 544.988281 463.773438 L 544.988281 411 L 597.761719 411 Z M 597.746094 463.773438 " clip-rule="nonzero"/></clipPath><clipPath id="04d3582c5f"><path d="M 0.800781 0 L 53.839844 0 L 53.839844 52.921875 L 0.800781 52.921875 Z M 0.800781 0 " clip-rule="nonzero"/></clipPath><clipPath id="f796f66cb2"><path d="M 53.746094 52.773438 L 0.988281 52.773438 L 0.988281 0 L 53.761719 0 Z M 53.746094 52.773438 " clip-rule="nonzero"/></clipPath><clipPath id="de3c71f7d5"><rect x="0" width="54" y="0" height="53"/></clipPath><clipPath id="71223f44e6"><path d="M 544.390625 481 L 598 481 L 598 535 L 544.390625 535 Z M 544.390625 481 " clip-rule="nonzero"/></clipPath><clipPath id="772b2a96b1"><path d="M 597.746094 534.019531 L 544.988281 534.019531 L 544.988281 481.257812 L 597.761719 481.257812 Z M 597.746094 534.019531 " clip-rule="nonzero"/></clipPath><clipPath id="3fed11b0c3"><path d="M 0.800781 0.199219 L 53.839844 0.199219 L 53.839844 53.238281 L 0.800781 53.238281 Z M 0.800781 0.199219 " clip-rule="nonzero"/></clipPath><clipPath id="ad617e0aca"><path d="M 53.746094 53.019531 L 0.988281 53.019531 L 0.988281 0.257812 L 53.761719 0.257812 Z M 53.746094 53.019531 " clip-rule="nonzero"/></clipPath><clipPath id="f11e61fcad"><rect x="0" width="54" y="0" height="54"/></clipPath><clipPath id="d3c75ff88f"><path d="M 616.636719 481.257812 L 669.410156 481.257812 L 669.410156 534.019531 L 616.636719 534.019531 Z M 616.636719 481.257812 " clip-rule="nonzero"/></clipPath><clipPath id="890d592158"><path d="M 0.636719 0.257812 L 53.410156 0.257812 L 53.410156 53.019531 L 0.636719 53.019531 Z M 0.636719 0.257812 " clip-rule="nonzero"/></clipPath><clipPath id="9f0e0a827d"><rect x="0" width="54" y="0" height="54"/></clipPath><clipPath id="a2b995c64b"><path d="M 616.636719 411 L 669.410156 411 L 669.410156 463.773438 L 616.636719 463.773438 Z M 616.636719 411 " clip-rule="nonzero"/></clipPath><clipPath id="b11d008969"><path d="M 0.636719 0 L 53.410156 0 L 53.410156 52.773438 L 0.636719 52.773438 Z M 0.636719 0 " clip-rule="nonzero"/></clipPath><clipPath id="010c4d9187"><rect x="0" width="54" y="0" height="53"/></clipPath></defs><g clip-path="url(#e0856a99ab)"><g clip-path="url(#40ead50210)"><g transform="matrix(1, 0, 0, 1, 6, 87)"><g clip-path="url(#9786c0d7da)"><g clip-path="url(#f3d5e81b53)"><g clip-path="url(#bcfa912053)"><rect x="-184.2" width="1166.4" fill="#7a0222" height="1166.39999" y="-265.199998" fill-opacity="1"/></g></g></g></g></g></g><g clip-path="url(#7bf079515e)"><g transform="matrix(1, 0, 0, 1, 186, 471)"><g clip-path="url(#06aecbd89d)"><g clip-path="url(#e241889bd5)"><rect x="-364.2" width="1166.4" fill="#7a0222" height="1166.39999" y="-649.199998" fill-opacity="1"/></g></g></g></g><g clip-path="url(#d64398f2e1)"><g clip-path="url(#614cb65f6f)"><g transform="matrix(1, 0, 0, 1, 544, 411)"><g clip-path="url(#de3c71f7d5)"><g clip-path="url(#04d3582c5f)"><g clip-path="url(#f796f66cb2)"><rect x="-722.2" width="1166.4" fill="#7a0222" height="1166.39999" y="-589.199998" fill-opacity="1"/></g></g></g></g></g></g><g clip-path="url(#71223f44e6)"><g clip-path="url(#772b2a96b1)"><g transform="matrix(1, 0, 0, 1, 544, 481)"><g clip-path="url(#f11e61fcad)"><g clip-path="url(#3fed11b0c3)"><g clip-path="url(#ad617e0aca)"><rect x="-722.2" width="1166.4" fill="#7a0222" height="1166.39999" y="-659.199998" fill-opacity="1"/></g></g></g></g></g></g><g clip-path="url(#d3c75ff88f)"><g transform="matrix(1, 0, 0, 1, 616, 481)"><g clip-path="url(#9f0e0a827d)"><g clip-path="url(#890d592158)"><rect x="-794.2" width="1166.4" fill="#7a0222" height="1166.39999" y="-659.199998" fill-opacity="1"/></g></g></g></g><g clip-path="url(#a2b995c64b)"><g transform="matrix(1, 0, 0, 1, 616, 411)"><g clip-path="url(#010c4d9187)"><g clip-path="url(#b11d008969)"><rect x="-794.2" width="1166.4" fill="#7a0222" height="1166.39999" y="-589.199998" fill-opacity="1"/></g></g></g></g></svg>