<svg xmlns="http://www.w3.org/2000/svg" xmlns:xlink="http://www.w3.org/1999/xlink" width="1080" zoomAndPan="magnify" viewBox="0 0 810 809.999993" height="1080" preserveAspectRatio="xMidYMid meet" version="1.0"><path fill="#7a0222" d="M 395.765625 231.496094 C 386.695312 237.492188 378.757812 242.839844 378.269531 243.324219 C 377.621094 243.808594 381.511719 247.375 386.855469 250.9375 L 396.574219 257.578125 L 405.160156 251.746094 L 413.746094 246.078125 L 418.121094 249.316406 C 420.714844 251.261719 423.144531 252.71875 423.628906 252.71875 C 424.117188 252.71875 426.546875 254.179688 428.976562 255.796875 C 437.722656 261.953125 500.09375 301.320312 502.6875 302.292969 C 505.117188 303.101562 505.441406 307.3125 505.441406 340.363281 L 505.441406 377.460938 L 426.058594 377.460938 L 426.058594 339.714844 L 425.898438 302.128906 L 413.425781 293.542969 C 406.621094 288.847656 390.90625 278.152344 378.757812 269.730469 C 366.605469 261.304688 355.914062 254.339844 355.265625 254.339844 C 354.457031 254.339844 343.925781 260.980469 331.9375 268.921875 C 319.949219 277.019531 303.425781 288.035156 295.164062 293.542969 L 280.261719 303.589844 L 280.585938 351.378906 L 281.070312 399.328125 L 302.128906 399.328125 L 302.617188 357.046875 L 302.941406 314.765625 L 328.859375 297.433594 L 354.78125 280.097656 L 379.566406 296.945312 L 404.191406 313.792969 L 405 356.5625 L 405.808594 399.328125 L 527.308594 399.328125 L 527.796875 345.707031 L 528.121094 292.246094 L 521.316406 288.359375 C 517.429688 286.253906 511.109375 282.203125 507.058594 279.613281 C 503.011719 276.859375 497.824219 273.457031 495.394531 272.320312 L 490.859375 270.054688 L 490.859375 233.28125 L 464.941406 233.28125 L 464.941406 242.351562 C 464.941406 250.128906 464.617188 251.261719 462.347656 250.453125 C 460.890625 249.804688 449.226562 242.839844 436.589844 234.898438 C 423.953125 226.800781 413.261719 220.320312 412.9375 220.480469 C 412.613281 220.480469 404.839844 225.503906 395.765625 231.496094 Z M 395.765625 231.496094 " fill-opacity="1" fill-rule="nonzero"/><path fill="#7a0222" d="M 447.445312 329.183594 L 447.929688 337.769531 L 462.511719 337.769531 L 462.996094 329.183594 L 463.480469 320.761719 L 446.957031 320.761719 Z M 447.445312 329.183594 " fill-opacity="1" fill-rule="nonzero"/><path fill="#7a0222" d="M 468.503906 329.183594 L 468.988281 337.769531 L 485.191406 337.769531 L 485.675781 329.183594 L 486.160156 320.761719 L 468.019531 320.761719 Z M 468.503906 329.183594 " fill-opacity="1" fill-rule="nonzero"/><path fill="#7a0222" d="M 335.664062 368.875 L 336.148438 399.328125 L 354.457031 399.816406 L 372.601562 400.300781 L 372.601562 338.578125 L 335.339844 338.578125 Z M 335.664062 368.875 " fill-opacity="1" fill-rule="nonzero"/><path fill="#7a0222" d="M 447.121094 350.730469 L 447.121094 359.640625 L 463.320312 359.640625 L 463.320312 341.820312 L 447.121094 341.820312 Z M 447.121094 350.730469 " fill-opacity="1" fill-rule="nonzero"/><path fill="#7a0222" d="M 468.503906 350.242188 L 468.988281 358.828125 L 477.574219 359.316406 L 486 359.800781 L 486 341.820312 L 468.019531 341.820312 Z M 468.503906 350.242188 " fill-opacity="1" fill-rule="nonzero"/><path fill="#7a0222" d="M 454.894531 431.730469 C 432.378906 437.886719 417.3125 452.304688 410.023438 474.660156 C 405.808594 487.296875 405.648438 498.3125 409.535156 512.082031 C 413.425781 526.015625 419.578125 536.21875 428.164062 543.1875 C 442.746094 555.175781 458.136719 559.871094 478.546875 558.414062 C 513.703125 556.144531 535.734375 535.246094 540.269531 499.769531 C 541.566406 489.726562 537.679688 470.125 532.816406 462.023438 C 527.472656 453.113281 515.320312 440.800781 507.871094 437.074219 C 493.289062 429.460938 471.097656 427.195312 454.894531 431.730469 Z M 486.160156 452.789062 C 490.050781 454.246094 496.042969 457.972656 499.285156 461.214844 C 507.707031 469.476562 511.109375 479.035156 511.109375 494.910156 C 511.109375 505.765625 510.460938 509.328125 506.574219 517.105469 C 495.394531 539.785156 466.558594 544.644531 448.578125 526.660156 C 433.027344 511.273438 431.40625 481.789062 445.015625 463.644531 C 453.601562 452.140625 471.097656 447.605469 486.160156 452.789062 Z M 486.160156 452.789062 " fill-opacity="1" fill-rule="nonzero"/><path fill="#7a0222" d="M 1.621094 494.425781 L 1.621094 557.28125 L 27.539062 557.28125 L 27.539062 506.734375 L 48.601562 507.222656 C 69.011719 507.871094 69.660156 508.03125 74.035156 512.40625 C 78.246094 516.617188 78.570312 517.753906 79.054688 533.464844 C 79.703125 558.898438 78.730469 557.28125 94.445312 557.28125 L 107.730469 557.28125 L 107.242188 536.707031 C 106.597656 513.054688 103.84375 504.792969 95.09375 499.121094 C 92.179688 497.339844 90.882812 495.71875 91.855469 495.71875 C 95.902344 495.71875 106.921875 484.054688 108.539062 478.222656 C 113.5625 459.757812 106.433594 443.71875 89.910156 436.265625 C 84.402344 433.835938 77.273438 433.1875 42.445312 432.539062 L 1.621094 431.730469 Z M 77.273438 457.488281 C 81.160156 460.890625 81.808594 462.671875 81.808594 469.800781 C 81.808594 476.765625 81.160156 478.546875 77.761719 481.140625 C 72.414062 485.191406 67.390625 486 46.007812 486 L 27.539062 486 L 27.539062 453.601562 L 50.058594 453.601562 C 71.605469 453.601562 72.898438 453.761719 77.273438 457.488281 Z M 77.273438 457.488281 " fill-opacity="1" fill-rule="nonzero"/><path fill="#7a0222" d="M 279.125 432.214844 L 264.058594 432.703125 L 264.058594 557.28125 L 288.359375 557.28125 L 288.359375 461.050781 L 303.101562 483.570312 C 311.203125 496.042969 325.621094 517.753906 335.015625 531.847656 L 352.027344 557.441406 L 366.769531 556.957031 L 381.511719 556.46875 L 381.996094 495.71875 C 382.15625 462.347656 382.15625 434.320312 381.671875 433.351562 C 381.347656 432.378906 376.003906 431.890625 368.710938 432.214844 L 356.238281 432.863281 L 356.722656 477.414062 C 357.046875 507.546875 356.722656 520.992188 355.589844 519.210938 C 350.566406 511.109375 300.671875 439.183594 297.59375 435.78125 C 294.191406 431.890625 293.21875 431.730469 279.125 432.214844 Z M 279.125 432.214844 " fill-opacity="1" fill-rule="nonzero"/><path fill="#7a0222" d="M 737.910156 432.539062 L 721.871094 433.351562 L 716.527344 446.308594 C 710.53125 460.402344 707.777344 467.371094 690.121094 510.300781 C 674.730469 547.398438 672.300781 553.714844 672.300781 555.820312 C 672.300781 556.792969 677.320312 557.28125 685.582031 556.957031 L 699.03125 556.46875 L 704.699219 542.699219 C 707.777344 535.085938 711.019531 527.957031 711.664062 526.824219 C 712.636719 525.367188 720.253906 524.878906 740.179688 524.878906 L 767.230469 524.878906 L 773.875 540.59375 L 780.515625 556.46875 L 794.609375 556.957031 L 808.703125 557.441406 L 807.570312 552.90625 C 807.082031 550.476562 805.140625 545.617188 803.519531 541.890625 C 802.0625 538.324219 797.203125 527.308594 792.988281 517.589844 C 788.777344 507.707031 784.402344 497.503906 783.269531 494.910156 C 781.972656 492.15625 777.601562 481.949219 773.386719 472.230469 C 769.339844 462.347656 764.152344 450.523438 762.046875 445.824219 C 759.941406 441.125 758.160156 436.753906 758.160156 435.941406 C 758.160156 432.703125 753.136719 431.730469 737.910156 432.539062 Z M 749.25 478.386719 C 754.109375 490.699219 758.160156 501.550781 758.160156 502.363281 C 758.160156 503.171875 749.410156 503.820312 738.558594 503.820312 C 723.492188 503.820312 719.117188 503.335938 719.605469 501.714844 C 729.648438 474.175781 738.070312 453.925781 739.042969 454.894531 C 739.691406 455.542969 744.226562 466.074219 749.25 478.386719 Z M 749.25 478.386719 " fill-opacity="1" fill-rule="nonzero"/><path fill="#7a0222" d="M 136.078125 494.910156 L 136.078125 557.28125 L 186.949219 557.28125 C 244.457031 557.28125 238.625 558.898438 240.570312 543.1875 L 241.703125 534.601562 L 202.175781 534.277344 L 162.808594 533.789062 L 162.808594 503.011719 L 198.125 502.523438 L 233.28125 502.199219 L 233.28125 481.140625 L 198.125 480.816406 L 162.808594 480.328125 L 162.808594 454.410156 L 199.90625 453.601562 L 236.84375 452.789062 L 237.167969 442.585938 L 237.328125 432.539062 L 136.078125 432.539062 Z M 136.078125 494.910156 " fill-opacity="1" fill-rule="nonzero"/><path fill="#7a0222" d="M 548.046875 433.675781 C 548.53125 434.484375 555.496094 451.007812 563.597656 470.609375 C 571.859375 490.210938 579.472656 508.355469 580.769531 511.109375 C 581.902344 513.703125 585.792969 523.261719 589.355469 532.171875 C 592.921875 541.078125 596.808594 550.476562 597.941406 552.90625 L 600.046875 557.441406 L 615.277344 556.957031 C 626.941406 556.632812 630.988281 555.820312 631.960938 554.039062 C 632.773438 552.742188 643.625 527.148438 656.261719 497.339844 C 668.734375 467.53125 680.074219 440.640625 681.371094 437.722656 L 683.800781 432.378906 L 668.898438 432.863281 L 653.992188 433.351562 L 635.527344 480.976562 C 625.480469 507.222656 617.21875 529.738281 617.21875 530.875 C 617.21875 534.601562 614.464844 531.847656 613.332031 526.984375 C 612.035156 521.800781 600.046875 489.726562 588.058594 459.269531 C 583.363281 447.605469 579.3125 436.914062 578.824219 435.292969 C 578.015625 432.863281 575.746094 432.539062 562.625 432.539062 C 554.203125 432.539062 547.722656 433.027344 548.046875 433.675781 Z M 548.046875 433.675781 " fill-opacity="1" fill-rule="nonzero"/><path fill="#7a0222" d="M 235.546875 570.078125 C 229.878906 572.507812 226.800781 578.503906 226.800781 586.441406 C 226.800781 595.351562 229.878906 600.210938 237.167969 602.640625 C 248.183594 606.203125 259.199219 597.292969 259.199219 584.980469 C 259.199219 574.613281 245.269531 566.027344 235.546875 570.078125 Z M 246.402344 576.71875 C 248.671875 578.015625 249.480469 580.121094 249.480469 585.304688 C 249.480469 592.921875 247.375 596.160156 242.191406 596.160156 C 240.246094 596.160156 237.976562 595.351562 236.84375 594.214844 C 234.089844 591.460938 234.414062 580.609375 237.492188 577.691406 C 240.40625 574.613281 242.027344 574.453125 246.402344 576.71875 Z M 246.402344 576.71875 " fill-opacity="1" fill-rule="nonzero"/><path fill="#7a0222" d="M 465.425781 569.753906 C 456.679688 571.375 451.980469 588.222656 457.8125 596.96875 C 460.890625 601.667969 468.34375 604.421875 474.660156 603.289062 C 488.753906 600.371094 492.15625 577.53125 479.359375 571.050781 C 474.820312 568.621094 472.390625 568.457031 465.425781 569.753906 Z M 476.28125 578.339844 C 482.597656 584.65625 479.035156 596.160156 470.933594 596.160156 C 463.15625 596.160156 460.078125 582.390625 466.882812 577.691406 C 471.582031 574.453125 472.390625 574.453125 476.28125 578.339844 Z M 476.28125 578.339844 " fill-opacity="1" fill-rule="nonzero"/><path fill="#7a0222" d="M 617.21875 570.5625 C 614.464844 572.023438 613.007812 574.289062 612.683594 577.691406 C 612.199219 583.363281 614.464844 585.792969 623.214844 588.871094 C 626.617188 590.003906 629.53125 592.109375 629.855469 593.40625 C 630.664062 596.96875 625.320312 598.105469 621.109375 595.351562 C 613.332031 590.328125 608.957031 594.214844 615.761719 600.371094 C 619.972656 604.261719 630.664062 604.097656 635.039062 600.210938 C 639.089844 596.644531 639.253906 589.355469 635.527344 586.117188 C 633.90625 584.65625 630.179688 583.039062 627.425781 582.390625 C 621.433594 581.09375 619.324219 578.824219 621.917969 576.234375 C 623.214844 574.9375 624.671875 575.101562 627.425781 576.558594 C 629.53125 577.691406 632.933594 578.339844 635.039062 578.015625 C 638.605469 577.53125 638.605469 577.53125 635.6875 573.804688 C 631.960938 569.269531 622.726562 567.808594 617.21875 570.5625 Z M 617.21875 570.5625 " fill-opacity="1" fill-rule="nonzero"/><path fill="#7a0222" d="M 173.339844 586.441406 L 173.339844 602.640625 L 177.390625 602.640625 C 181.117188 602.640625 181.441406 601.992188 181.441406 596.160156 L 181.441406 589.679688 L 194.398438 589.679688 L 194.398438 596.160156 C 194.398438 601.992188 194.886719 602.640625 198.449219 602.640625 L 202.5 602.640625 L 202.5 570.238281 L 198.449219 570.238281 C 194.722656 570.238281 194.398438 570.886719 194.398438 576.882812 L 194.398438 583.363281 L 188.40625 582.875 C 182.574219 582.390625 182.25 582.066406 181.765625 576.234375 C 181.277344 571.050781 180.628906 570.238281 177.226562 570.238281 C 173.339844 570.238281 173.339844 570.402344 173.339844 586.441406 Z M 173.339844 586.441406 " fill-opacity="1" fill-rule="nonzero"/><path fill="#7a0222" d="M 283.5 586.441406 C 283.5 601.507812 283.660156 602.640625 286.738281 602.640625 C 289.65625 602.640625 289.980469 601.507812 290.140625 592.433594 C 290.140625 581.902344 291.113281 582.550781 294.839844 595.835938 C 296.296875 601.507812 297.269531 602.800781 300.023438 602.316406 C 302.453125 601.992188 304.234375 599.5625 306.34375 592.921875 L 309.257812 584.011719 L 309.257812 593.242188 C 309.421875 602.152344 309.582031 602.640625 313.46875 602.640625 L 317.519531 602.640625 L 317.519531 570.238281 L 311.851562 570.238281 C 306.503906 570.238281 306.179688 570.5625 303.75 579.148438 C 302.292969 584.011719 300.835938 588.058594 300.511719 588.058594 C 300.1875 588.058594 298.566406 584.011719 297.109375 579.148438 C 294.355469 570.726562 294.03125 570.238281 288.847656 570.238281 L 283.5 570.238281 Z M 283.5 586.441406 " fill-opacity="1" fill-rule="nonzero"/><path fill="#7a0222" d="M 343.441406 586.441406 L 343.441406 602.800781 L 355.914062 602.316406 C 366.445312 601.828125 368.550781 601.34375 369.035156 598.914062 C 369.523438 596.644531 368.226562 596.160156 360.613281 596.160156 C 352.675781 596.160156 351.539062 595.835938 351.539062 592.921875 C 351.539062 590.164062 352.675781 589.679688 358.828125 589.679688 C 364.984375 589.679688 366.121094 589.195312 366.121094 586.441406 C 366.121094 583.6875 364.984375 583.199219 358.828125 583.199219 C 352.675781 583.199219 351.539062 582.714844 351.539062 579.960938 C 351.539062 577.207031 352.675781 576.71875 359.640625 576.71875 C 366.605469 576.71875 367.738281 576.234375 367.738281 573.480469 C 367.738281 570.5625 366.605469 570.238281 355.589844 570.238281 L 343.441406 570.238281 Z M 343.441406 586.441406 " fill-opacity="1" fill-rule="nonzero"/><path fill="#7a0222" d="M 391.390625 576.234375 C 392.039062 579.636719 393.820312 586.765625 395.28125 592.109375 C 397.546875 600.371094 398.519531 601.828125 402.085938 602.316406 C 405.484375 602.800781 406.296875 601.828125 408.078125 595.835938 C 412.289062 581.902344 412.453125 581.902344 414.71875 592.597656 C 416.824219 601.667969 417.3125 602.640625 421.199219 602.640625 C 425.574219 602.640625 426.382812 601.183594 431.730469 578.664062 C 433.835938 570.238281 433.835938 570.238281 430.109375 570.238281 C 426.871094 570.238281 426.058594 571.535156 424.277344 579.148438 C 422.171875 588.707031 419.578125 592.433594 419.578125 586.117188 C 419.578125 584.011719 418.769531 579.636719 417.796875 576.234375 C 416.503906 571.375 415.367188 570.238281 412.289062 570.238281 C 409.050781 570.238281 408.078125 571.375 406.621094 577.042969 C 403.21875 590.652344 402.40625 591.136719 400.300781 580.285156 C 398.519531 571.210938 398.035156 570.238281 394.308594 570.238281 C 390.582031 570.238281 390.421875 570.5625 391.390625 576.234375 Z M 391.390625 576.234375 " fill-opacity="1" fill-rule="nonzero"/><path fill="#7a0222" d="M 510.300781 586.441406 L 510.300781 602.640625 L 515.160156 602.640625 C 519.695312 602.640625 520.019531 602.316406 520.019531 596.160156 C 520.019531 591.625 520.667969 589.679688 522.289062 589.679688 C 527.632812 589.679688 529.738281 591.785156 529.738281 597.132812 C 529.738281 601.828125 530.226562 602.640625 533.464844 602.640625 C 537.03125 602.640625 537.191406 602.316406 536.058594 594.054688 C 535.410156 589.519531 535.570312 584.980469 536.382812 584.011719 C 538.648438 581.578125 538.003906 575.585938 535.246094 572.832031 C 533.464844 570.886719 529.578125 570.238281 521.476562 570.238281 L 510.300781 570.238281 Z M 528.929688 579.960938 C 528.929688 581.417969 527.148438 582.550781 524.554688 582.875 C 520.828125 583.363281 520.019531 582.714844 520.019531 579.960938 C 520.019531 577.207031 520.828125 576.558594 524.554688 577.042969 C 527.148438 577.367188 528.929688 578.503906 528.929688 579.960938 Z M 528.929688 579.960938 " fill-opacity="1" fill-rule="nonzero"/><path fill="#7a0222" d="M 562.140625 586.441406 L 562.140625 602.640625 L 566.191406 602.640625 C 569.914062 602.640625 570.238281 601.992188 570.238281 596.160156 C 570.238281 592.597656 570.886719 589.679688 571.699219 589.679688 C 572.507812 589.679688 575.261719 592.597656 577.855469 596.160156 C 581.257812 601.019531 583.523438 602.640625 586.925781 602.640625 C 589.355469 602.640625 591.300781 602.316406 591.300781 601.828125 C 591.300781 601.34375 588.546875 597.132812 584.980469 592.433594 L 578.664062 583.847656 L 584.65625 577.53125 C 590.328125 571.210938 590.488281 571.050781 586.601562 570.5625 C 584.011719 570.078125 580.933594 571.859375 576.558594 576.070312 L 570.238281 582.226562 L 570.238281 576.234375 C 570.238281 570.886719 569.753906 570.238281 566.191406 570.238281 L 562.140625 570.238281 Z M 562.140625 586.441406 " fill-opacity="1" fill-rule="nonzero"/></svg>