<svg xmlns="http://www.w3.org/2000/svg" xmlns:xlink="http://www.w3.org/1999/xlink" width="1080" zoomAndPan="magnify" viewBox="0 0 810 809.999993" height="1080" preserveAspectRatio="xMidYMid meet" version="1.0"><rect x="-81" width="972" fill="#ffffff" y="-80.999999" height="971.999992" fill-opacity="1"/><rect x="-81" width="972" fill="#ffffff" y="-80.999999" height="971.999992" fill-opacity="1"/><path fill="#ffffff" d="M 384.75 175.933594 C 359.800781 192.457031 336.636719 207.523438 333.394531 209.304688 C 329.992188 211.246094 327.238281 213.355469 327.238281 214.003906 C 327.238281 214.648438 333.234375 219.347656 340.6875 224.207031 C 347.976562 229.230469 359.800781 237.328125 366.929688 242.191406 C 374.058594 247.050781 380.699219 251.101562 381.835938 251.101562 C 382.804688 251.101562 388.476562 247.859375 394.308594 243.808594 C 409.699219 233.28125 430.597656 220.320312 432.214844 220.320312 C 433.027344 220.320312 437.238281 222.589844 441.613281 225.503906 C 467.53125 242.027344 472.714844 245.429688 476.605469 248.023438 C 479.035156 249.804688 481.464844 251.101562 482.113281 251.101562 C 482.597656 251.101562 485.351562 252.71875 488.105469 254.664062 C 490.859375 256.769531 494.425781 259.039062 496.042969 260.011719 C 497.664062 260.820312 505.117188 265.679688 512.890625 270.539062 C 520.507812 275.398438 527.957031 280.097656 529.578125 281.070312 C 533.464844 283.339844 551.125 294.515625 580.769531 313.46875 C 585.304688 316.386719 610.09375 331.9375 635.851562 348.300781 C 661.769531 364.5 686.71875 380.375 691.414062 383.292969 L 699.839844 388.800781 L 699.839844 604.261719 L 469.800781 604.261719 L 469.476562 494.585938 L 468.988281 384.910156 L 458.460938 377.621094 C 452.628906 373.570312 442.421875 366.605469 435.78125 362.070312 C 402.570312 339.390625 382.480469 325.621094 375.839844 320.921875 C 371.789062 318.167969 359.800781 309.90625 349.109375 302.617188 C 338.417969 295.324219 321.246094 283.5 311.039062 276.535156 C 300.835938 269.566406 286.253906 259.6875 278.800781 254.664062 C 271.351562 249.480469 264.382812 244.78125 263.25 243.972656 C 261.953125 243 250.128906 249.964844 225.179688 266.652344 C 205.253906 279.9375 175.121094 300.023438 158.113281 311.363281 C 141.101562 322.703125 125.0625 333.394531 122.308594 335.339844 C 119.71875 337.121094 112.265625 342.144531 105.949219 346.355469 C 99.628906 350.566406 83.429688 361.261719 69.984375 370.171875 L 45.523438 386.371094 L 45.523438 526.015625 L 45.359375 665.820312 L 105.300781 665.820312 L 105.300781 591.625 C 105.300781 550.800781 105.785156 495.394531 106.433594 468.828125 L 107.40625 420.226562 L 125.386719 408.238281 C 135.269531 401.597656 144.179688 395.441406 144.988281 394.792969 C 145.960938 394.144531 165.5625 381.023438 188.730469 365.632812 C 211.894531 350.242188 236.683594 333.558594 243.808594 328.699219 C 250.9375 323.675781 257.578125 319.140625 258.714844 318.652344 C 260.335938 317.683594 274.914062 326.914062 309.421875 350.730469 C 326.429688 362.554688 345.222656 375.355469 360.449219 385.558594 C 367.578125 390.421875 373.734375 394.792969 374.21875 395.28125 C 374.707031 395.765625 382.480469 401.113281 391.714844 407.269531 L 408.238281 418.285156 L 408.238281 665.820312 L 763.019531 665.820312 L 762.695312 509.976562 L 762.210938 354.292969 L 757.835938 351.703125 C 755.40625 350.242188 744.066406 343.277344 732.726562 335.988281 C 721.222656 328.859375 699.355469 314.929688 684.125 305.371094 L 656.101562 287.710938 L 656.101562 181.441406 L 579.960938 181.441406 L 579.960938 209.789062 C 579.960938 225.34375 579.472656 238.140625 578.824219 238.140625 C 577.855469 238.140625 545.128906 217.726562 516.457031 199.421875 C 508.84375 194.398438 498.960938 188.082031 494.585938 185.488281 C 490.375 182.734375 484.21875 179.011719 481.140625 177.066406 C 478.0625 175.121094 473.363281 172.207031 470.773438 170.746094 C 468.179688 169.289062 462.511719 165.5625 458.136719 162.648438 C 453.925781 159.570312 449.875 157.140625 449.386719 157.140625 C 448.902344 157.140625 446.148438 155.519531 443.394531 153.414062 C 439.019531 150.496094 431.242188 145.800781 430.273438 145.800781 C 430.109375 145.800781 409.699219 159.40625 384.75 175.933594 Z M 384.75 175.933594 " fill-opacity="1" fill-rule="nonzero"/><path fill="#ffffff" d="M 529.738281 460.402344 L 529.738281 484.378906 L 578.503906 484.378906 L 578.015625 460.726562 L 577.53125 437.238281 L 553.554688 436.914062 L 529.738281 436.589844 Z M 529.738281 460.402344 " fill-opacity="1" fill-rule="nonzero"/><path fill="#ffffff" d="M 592.921875 460.890625 L 592.921875 484.378906 L 641.519531 484.378906 L 641.519531 437.398438 L 592.921875 437.398438 Z M 592.921875 460.890625 " fill-opacity="1" fill-rule="nonzero"/><path fill="#ffffff" d="M 205.738281 578.339844 L 205.738281 665.820312 L 314.28125 665.820312 L 314.28125 490.859375 L 205.738281 490.859375 Z M 205.738281 578.339844 " fill-opacity="1" fill-rule="nonzero"/><path fill="#ffffff" d="M 529.738281 523.261719 L 529.738281 547.558594 L 578.339844 547.558594 L 578.339844 498.960938 L 529.738281 498.960938 Z M 529.738281 523.261719 " fill-opacity="1" fill-rule="nonzero"/><path fill="#ffffff" d="M 592.921875 523.261719 L 592.921875 547.558594 L 641.519531 547.558594 L 641.519531 498.960938 L 592.921875 498.960938 Z M 592.921875 523.261719 " fill-opacity="1" fill-rule="nonzero"/></svg>